<?xml version="1.0" standalone="no"?>
<?xml-stylesheet href="light.css" type="text/css"?>
<!DOCTYPE svg PUBLIC "-//W3C//DTD SVG 1.1//EN" "http://www.w3.org/Graphics/SVG/1.1/DTD/svg11.dtd">
<svg xmlns="http://www.w3.org/2000/svg" class="railroad-diagram" width="610" height="154" viewBox="0 0 610 154"><g transform="translate(.5 .5)"><path d="M 20 21 v 20 m 0 -10 h 20.5"></path><g><path d="M40 31h0"></path><path d="M570 31h0"></path><path d="M40 31h20"></path><g><path d="M60 31h134"></path><path d="M416 31h134"></path><g class="non-terminal"><path d="M194 31h0"></path><path d="M416 31h0"></path><rect x="194" y="20" width="222" height="22" rx="8" ry="8"></rect><text x="305" y="35">multiplicativeExpression</text></g></g><path d="M550 31h20"></path><path d="M40 31a10 10 0 0 1 10 10v26a10 10 0 0 0 10 10"></path><g><path d="M60 77h0"></path><path d="M550 77h0"></path><g class="non-terminal"><path d="M60 77h0"></path><path d="M234 77h0"></path><rect x="60" y="66" width="174" height="22" rx="8" ry="8"></rect><text x="147" y="81">additiveExpression</text></g><path d="M234 77h10"></path><path d="M244 77h10"></path><g class="terminal"><path d="M254 77h0"></path><path d="M308 77h0"></path><rect x="254" y="66" width="54" height="22" rx="0" ry="0"></rect><text x="281" y="81">'+'</text></g><path d="M308 77h10"></path><path d="M318 77h10"></path><g class="non-terminal"><path d="M328 77h0"></path><path d="M550 77h0"></path><rect x="328" y="66" width="222" height="22" rx="8" ry="8"></rect><text x="439" y="81">multiplicativeExpression</text></g></g><path d="M550 77a10 10 0 0 0 10 -10v-26a10 10 0 0 1 10 -10"></path><path d="M40 31a10 10 0 0 1 10 10v72a10 10 0 0 0 10 10"></path><g><path d="M60 123h0"></path><path d="M550 123h0"></path><g class="non-terminal"><path d="M60 123h0"></path><path d="M234 123h0"></path><rect x="60" y="112" width="174" height="22" rx="8" ry="8"></rect><text x="147" y="127">additiveExpression</text></g><path d="M234 123h10"></path><path d="M244 123h10"></path><g class="terminal"><path d="M254 123h0"></path><path d="M308 123h0"></path><rect x="254" y="112" width="54" height="22" rx="0" ry="0"></rect><text x="281" y="127">'-'</text></g><path d="M308 123h10"></path><path d="M318 123h10"></path><g class="non-terminal"><path d="M328 123h0"></path><path d="M550 123h0"></path><rect x="328" y="112" width="222" height="22" rx="8" ry="8"></rect><text x="439" y="127">multiplicativeExpression</text></g></g><path d="M550 123a10 10 0 0 0 10 -10v-72a10 10 0 0 1 10 -10"></path></g><path d="M 570 31 h 20 m 0 -10 v 20"></path></g></svg>